<?xml version="1.0" standalone="no"?>
<!DOCTYPE svg PUBLIC "-//W3C//DTD SVG 20010904//EN"
 "http://www.w3.org/TR/2001/REC-SVG-20010904/DTD/svg10.dtd">
<svg version="1.0" xmlns="http://www.w3.org/2000/svg"
 width="300.000000pt" height="294.000000pt" viewBox="0 0 300.000000 294.000000"
 preserveAspectRatio="xMidYMid meet">
<metadata>
Created by potrace 1.10, written by Peter Selinger 2001-2011
</metadata>
<g transform="translate(0.000000,294.000000) scale(0.050000,-0.050000)"
fill="#ffffff" stroke="none">
<path d="M2745 5459 c-582 -46 -1186 -228 -1395 -421 -149 -138 -162 -178
-241 -762 -39 -289 -85 -625 -102 -746 -32 -229 -65 -2314 -39 -2420 12 -48
19 -50 170 -50 l156 0 11 -219 c15 -313 94 -424 305 -424 211 0 310 140 310
437 l0 186 1107 0 1108 0 9 -195 c14 -286 72 -386 247 -425 236 -53 368 106
369 445 l0 195 170 0 170 0 0 985 c0 1201 -97 2360 -232 2777 -128 397 -1178
712 -2123 637z m1216 -400 c28 -15 39 -42 39 -99 0 -144 25 -140 -970 -140
-984 0 -970 -2 -970 130 0 132 -15 130 976 130 573 0 900 -7 925 -21z m491
-500 c107 -41 103 -24 217 -823 83 -578 85 -622 31 -676 -39 -39 -67 -40
-1661 -40 l-1621 0 -49 49 c-62 62 -65 11 41 750 93 642 110 706 196 741 64
26 2778 25 2846 -1z m-2667 -2322 c85 -61 121 -147 110 -262 -29 -300 -462
-348 -556 -61 -87 262 219 484 446 323z m2831 10 c165 -106 161 -384 -5 -487
-215 -132 -490 58 -443 307 36 186 283 286 448 180z"/>
</g>
</svg>
